<svg width="1440" height="346" viewBox="0 0 1440 346" fill="none" xmlns="http://www.w3.org/2000/svg">
<path d="M-54.1621 289.22L-58 315V345.5H1498V63.4831L1485.94 50.5932L1479.91 43.9831L1470.04 32.0847L1466.2 55.5508L1462.91 61.1695L1460.17 50.5932L1451.95 51.9153L1447.01 45.3051L1444.27 50.5932L1437.69 42L1433.3 54.2288L1427.27 55.5508L1422.89 63.4831L1416.31 66.7881L1413.02 63.4831L1406.99 90.9153L1400.96 97.8559V89.9237L1397.12 97.8559L1393.28 90.9153L1389.44 96.5339L1382.31 74.3898L1369.7 78.0254L1365.32 66.7881L1353.8 55.5508H1345.58L1340.65 42L1334.07 38.6949L1330.23 32.0847L1326.94 35.0593L1322 30.7627L1310.49 42L1297.88 42.9915V51.9153L1293.49 15.2288L1276.5 13.9068L1274.3 3L1254.57 9.61017L1248.54 45.3051L1241.41 50.5932L1229.89 42L1227.15 81.3305L1218.93 86.9492L1213.99 74.3898L1206.87 84.9661L1203.03 78.0254L1193.16 81.3305L1182.74 32.0847L1159.72 42L1152.04 37.3729L1147.1 42L1141.62 26.4661L1132.3 25.1441L1123.53 18.2034L1116.95 35.0593L1105.44 25.1441L1093.37 20.5169L1080.22 39.6864L1078.57 32.0847L1065.41 39.6864L1057.74 42L1047.32 37.3729L1037.45 60.5085L1020.45 70.0932L1014.42 61.5L1006.2 81.3305L1004.55 98.5169L1001.81 94.5508L999.071 108.102L994.685 114.051L993.04 100.5L989.751 102.814L985.913 81.9915L978.785 91.9068L975.495 76.3729L970.013 90.5847L965.627 86.9492L961.789 92.5678L955.758 81.3305L950.823 82.6525L944.244 102.153L936.568 81.3305L929.44 66.7881L922.313 80.6695L920.12 98.8475L917.927 85.2966L913.541 80.6695L910.251 118.347L902.575 98.5169L900.93 102.814L893.254 73.0678L879.548 100.831L878.451 96.5339L875.161 109.093L869.13 112.398L862.551 109.093L847.199 119.008L843.91 95.5424L830.751 110.415L825.268 165.941L817.593 188.415L811.562 139.169L809.369 158.339L805.531 121.983L802.789 141.814L800.048 125.619L795.113 135.203L793.469 176.517L789.082 171.559L788.534 183.127L778.117 192.051L770.989 177.839L766.055 183.127L763.314 203.288L755.09 193.703L750.703 179.492L749.059 201.305L745.769 212.873L741.383 201.305L740.834 244.602L735.9 225.102L732.61 262.78L730.417 250.22L728.224 264.102L727.128 187.424L722.741 185.771L719.452 164.619L714.517 146.11L712.872 164.949L703.552 189.407V162.305L698.617 190.398L694.231 154.703L684.911 162.966L683.814 118.678L682.169 122.644L679.976 118.678L678.88 122.644L676.138 118.678L671.752 151.729L669.559 145.449L662.98 147.102L659.142 144.788L652.014 141.814L648.176 156.356L642.145 138.839L637.211 123.966L635.566 165.28L632.825 147.102L631.728 152.72L630.631 147.102L627.342 150.076L623.504 138.178L620.763 122.644L618.569 127.271L616.376 107.771L612.538 121.653L610.894 114.381L608.701 96.5339L607.056 76.7034L602.121 63.8136L599.928 73.3983L598.283 68.7712L594.445 63.1525L590.607 70.0932L583.48 72.4068L580.739 67.7797L579.094 53.2373L575.256 46.9576L574.159 13.5763L567.032 16.8814L557.163 14.2373L553.873 16.8814L550.035 24.4831L534.135 18.5339L523.17 19.5254L512.753 17.5424L507.818 22.5L505.625 75.7119L502.884 86.9492L500.691 82.983L497.949 83.9746L493.015 97.1949L486.436 82.322L484.791 54.2288L483.146 56.8729C482.598 55.5508 481.501 52.7746 481.501 52.2458C481.501 51.7169 479.674 55.7712 478.76 57.8644L473.277 52.2458L470.536 78.0254L467.794 65.1356L464.505 62.4915L461.215 65.7966L458.474 55.2203L452.443 60.178L449.701 65.7966L446.412 56.2119L442.025 81L427.222 88.6017L423.384 99.5085L420.643 95.5424L417.901 101.492L416.257 91.5763L413.515 96.2034L411.87 103.144L409.129 99.5085L406.936 104.136L403.646 86.9492L399.808 104.136L397.615 101.492L391.584 76.7034L383.908 96.2034L380.619 85.2966L377.877 92.5678L373.491 70.4237L354.85 63.1525L350.464 52.2458L347.722 95.5424L343.884 86.2881L336.757 96.2034L332.371 93.8898L323.598 118.678L316.471 91.5763L308.795 106.449L300.023 105.127L297.829 111.737L292.895 118.678L288.509 106.449L283.574 129.254L279.736 61.8305L278.092 76.7034L274.802 46.9576L269.868 41.339L268.223 45.3051L267.126 41.339L261.643 36.0508L258.902 40.678L255.612 30.4322L252.871 42.661L250.13 33.4068L245.195 27.7881L241.906 48.2797L236.423 40.678L231.488 49.9322L228.199 44.6441L221.071 59.5169L216.685 46.2966L213.395 42.661L206.268 48.2797L201.882 46.2966L195.302 47.6186L191.464 44.6441L189.271 55.2203L185.982 49.9322L182.144 46.2966L178.854 53.2373L176.113 34.0678L172.823 46.2966L171.727 55.2203L168.437 58.8559L166.792 78.0254L164.051 72.7373L162.406 82.322L158.568 76.0424L156.923 80.339L153.634 67.4492L150.892 82.322L146.506 67.4492L142.12 95.5424L139.378 91.2458L137.734 105.788L131.703 110.746L130.606 132.559L127.865 129.915L124.575 146.771L121.834 140.161V146.771L119.092 139.5L115.254 137.847L111.965 130.576H107.579L105.385 120.992L102.096 117.686L98.2579 87.2797L94.42 76.7034L90.5821 79.3475L85.6476 85.2966L82.9063 79.3475L79.6166 76.7034L77.4235 58.8559L72.4891 60.5085L70.296 55.2203L67.5546 58.8559L65.9098 55.2203L62.6202 31.4237L59.8788 34.7288L57.6857 22.8305L53.8478 19.5254L48.9133 23.822L46.172 20.5169L43.9789 27.7881L41.2375 22.8305L36.303 26.4661L34.6582 39.3559L31.9168 38.0339L30.272 43.322L26.4341 42L23.6927 48.6102L17.1135 53.5678L11.6307 71.0847L6.69627 63.4831L3.9549 46.6271L1.76181 48.6102L0.116985 45.6356L-3.72093 55.8814L-8.10712 48.6102L-9.75194 42L-14.1381 53.5678L-18.5243 120.992L-22.3622 116.034L-25.1036 119.008V138.178L-28.9415 128.263L-34.9725 186.763L-37.1656 182.136L-39.3587 275.669L-45.3897 272.695L-50.8724 291.534L-54.1621 289.22Z" fill="url(#paint0_linear_443_259927)"/>
<path d="M-58 315L-54.1621 289.22L-50.8724 291.534L-45.3897 272.695L-39.3587 275.669L-37.1656 182.136L-34.9725 186.763L-28.9415 128.263L-25.1036 138.178V119.008L-22.3622 116.034L-18.5243 120.992L-14.1381 53.5678L-9.75194 42L-8.10712 48.6102L-3.72093 55.8814L0.116985 45.6356L1.76181 48.6102L3.9549 46.6271L6.69627 63.4831L11.6307 71.0847L17.1135 53.5678L23.6927 48.6102L26.4341 42L30.272 43.322L31.9168 38.0339L34.6582 39.3559L36.303 26.4661L41.2375 22.8305L43.9789 27.7881L46.172 20.5169L48.9133 23.822L53.8478 19.5254L57.6857 22.8305L59.8788 34.7288L62.6202 31.4237L65.9098 55.2203L67.5546 58.8559L70.296 55.2203L72.4891 60.5085L77.4235 58.8559L79.6166 76.7034L82.9063 79.3475L85.6476 85.2966L90.5821 79.3475L94.42 76.7034L98.2579 87.2797L102.096 117.686L105.385 120.992L107.579 130.576H111.965L115.254 137.847L119.092 139.5L121.834 146.771V140.161L124.575 146.771L127.865 129.915L130.606 132.559L131.703 110.746L137.734 105.788L139.378 91.2458L142.12 95.5424L146.506 67.4492L150.892 82.322L153.634 67.4492L156.923 80.339L158.568 76.0424L162.406 82.322L164.051 72.7373L166.792 78.0254L168.437 58.8559L171.727 55.2203L172.823 46.2966L176.113 34.0678L178.854 53.2373L182.144 46.2966L185.982 49.9322L189.271 55.2203L191.464 44.6441L195.302 47.6186L201.882 46.2966L206.268 48.2797L213.395 42.661L216.685 46.2966L221.071 59.5169L228.199 44.6441L231.488 49.9322L236.423 40.678L241.906 48.2797L245.195 27.7881L250.13 33.4068L252.871 42.661L255.612 30.4322L258.902 40.678L261.643 36.0508L267.126 41.339L268.223 45.3051L269.868 41.339L274.802 46.9576L278.092 76.7034L279.736 61.8305L283.574 129.254L288.509 106.449L292.895 118.678L297.829 111.737L300.023 105.127L308.795 106.449L316.471 91.5763L323.598 118.678L332.371 93.8898L336.757 96.2034L343.884 86.2881L347.722 95.5424L350.464 52.2458L354.85 63.1525L373.491 70.4237L377.877 92.5678L380.619 85.2966L383.908 96.2034L391.584 76.7034L397.615 101.492L399.808 104.136L403.646 86.9492L406.936 104.136L409.129 99.5085L411.87 103.144L413.515 96.2034L416.257 91.5763L417.901 101.492L420.643 95.5424L423.384 99.5085L427.222 88.6017L442.025 81L446.412 56.2119L449.701 65.7966L452.443 60.178L458.474 55.2203L461.215 65.7966L464.505 62.4915L467.794 65.1356L470.536 78.0254L473.277 52.2458L478.76 57.8644C479.673 55.7712 481.501 51.7169 481.501 52.2458C481.501 52.7746 482.598 55.5508 483.146 56.8729L484.791 54.2288L486.436 82.322L493.015 97.1949L497.949 83.9746L500.691 82.983L502.884 86.9492L505.625 75.7119L507.818 22.5L512.753 17.5424L523.17 19.5254L534.135 18.5339L550.035 24.4831L553.873 16.8814L557.163 14.2373L567.032 16.8814L574.159 13.5763L575.256 46.9576L579.094 53.2373L580.739 67.7797L583.48 72.4068L590.607 70.0932L594.445 63.1525L598.283 68.7712L599.928 73.3983L602.121 63.8136L607.056 76.7034L608.701 96.5339L610.894 114.381L612.538 121.653L616.376 107.771L618.569 127.271L620.763 122.644L623.504 138.178L627.342 150.076L630.631 147.102L631.728 152.72L632.825 147.102L635.566 165.28L637.211 123.966L642.145 138.839L648.176 156.356L652.014 141.814L659.142 144.788L662.98 147.102L669.559 145.449L671.752 151.729L676.138 118.678L678.88 122.644L679.976 118.678L682.169 122.644L683.814 118.678L684.911 162.966L694.231 154.703L698.617 190.398L703.552 162.305V189.407L712.872 164.949L714.517 146.11L719.452 164.619L722.741 185.771L727.128 187.424L728.224 264.102L730.417 250.22L732.61 262.78L735.9 225.102L740.834 244.602L741.383 201.305L745.769 212.873L749.059 201.305L750.703 179.492L755.09 193.703L763.314 203.288L766.055 183.127L770.989 177.839L778.117 192.051L788.534 183.127L789.082 171.559L793.469 176.517L795.113 135.203L800.048 125.619L802.789 141.814L805.531 121.983L809.369 158.339L811.562 139.169L817.593 188.415L825.269 165.941L830.751 110.415L843.91 95.5424L847.199 119.008L862.551 109.093L869.13 112.398L875.161 109.093L878.451 96.5339L879.548 100.831L893.254 73.0678L900.93 102.814L902.575 98.5169L910.251 118.347L913.541 80.6695L917.927 85.2966L920.12 98.8475L922.313 80.6695L929.44 66.7881L936.568 81.3305L944.244 102.153L950.823 82.6525L955.758 81.3305L961.789 92.5678L965.627 86.9492L970.013 90.5847L975.495 76.3729L978.785 91.9068L985.913 81.9915L989.751 102.814L993.04 100.5L994.685 114.051L999.071 108.102L1001.81 94.5508L1004.55 98.5169L1006.2 81.3305L1014.42 61.5L1020.45 70.0932L1037.45 60.5085L1047.32 37.3729L1057.74 42L1065.41 39.6864L1078.57 32.0847L1080.22 39.6864L1093.37 20.5169L1105.44 25.1441L1116.95 35.0593L1123.53 18.2034L1132.3 25.1441L1141.62 26.4661L1147.11 42L1152.04 37.3729L1159.72 42L1182.74 32.0847L1193.16 81.3305L1203.03 78.0254L1206.87 84.9661L1213.99 74.3898L1218.93 86.9492L1227.15 81.3305L1229.89 42L1241.41 50.5932L1248.54 45.3051L1254.57 9.61017L1274.3 3L1276.5 13.9068L1293.49 15.2288L1297.88 51.9153V42.9915L1310.49 42L1322 30.7627L1326.94 35.0593L1330.23 32.0847L1334.07 38.6949L1340.65 42L1345.58 55.5508H1353.8L1365.32 66.7881L1369.7 78.0254L1382.31 74.3898L1389.44 96.5339L1393.28 90.9153L1397.12 97.8559L1400.96 89.9237V97.8559L1406.99 90.9153L1413.02 63.4831L1416.31 66.7881L1422.89 63.4831L1427.27 55.5508L1433.3 54.2288L1437.69 42L1444.27 50.5932L1447.01 45.3051L1451.95 51.9153L1460.17 50.5932L1462.91 61.1695L1466.2 55.5508L1470.04 32.0847L1479.91 43.9831L1485.94 50.5932L1498 63.4831" stroke="white" stroke-width="5" stroke-linejoin="round"/>
<defs>
<linearGradient id="paint0_linear_443_259927" x1="731.299" y1="37.3289" x2="725.219" y2="306.948" gradientUnits="userSpaceOnUse">
<stop stop-color="white" stop-opacity="0.17"/>
<stop offset="1" stop-color="white" stop-opacity="0"/>
</linearGradient>
</defs>
</svg>
