<svg width="220" height="37" viewBox="0 0 220 37" fill="none" xmlns="http://www.w3.org/2000/svg">
<path d="M212.261 25.8606C211.271 25.8606 210.387 25.6202 209.609 25.1394C208.831 24.6586 208.216 24.001 207.764 23.1667C207.311 22.3323 207.085 21.3849 207.085 20.3242C207.085 19.2636 207.311 18.3232 207.764 17.503C208.216 16.6687 208.831 16.0182 209.609 15.5515C210.387 15.0707 211.271 14.8303 212.261 14.8303C213.053 14.8303 213.746 14.9788 214.34 15.2758C214.933 15.5727 215.414 15.9899 215.782 16.5273V10.3333H218.497V25.6061H216.079L215.782 24.1C215.443 24.5667 214.99 24.9768 214.424 25.3303C213.873 25.6838 213.152 25.8606 212.261 25.8606ZM212.833 23.4849C213.71 23.4849 214.424 23.195 214.976 22.6152C215.542 22.0212 215.824 21.2646 215.824 20.3455C215.824 19.4263 215.542 18.6768 214.976 18.097C214.424 17.503 213.71 17.2061 212.833 17.2061C211.971 17.2061 211.257 17.496 210.691 18.0758C210.125 18.6556 209.843 19.4051 209.843 20.3242C209.843 21.2434 210.125 22 210.691 22.5939C211.257 23.1879 211.971 23.4849 212.833 23.4849Z" fill="white"/>
<path d="M195.262 25.6061V15.0849H197.659L197.871 16.8667C198.196 16.2444 198.663 15.7495 199.271 15.3818C199.893 15.0141 200.621 14.8303 201.456 14.8303C202.757 14.8303 203.768 15.2404 204.489 16.0606C205.21 16.8808 205.571 18.0828 205.571 19.6667V25.6061H202.856V19.9212C202.856 19.0162 202.672 18.3232 202.304 17.8424C201.936 17.3616 201.364 17.1212 200.586 17.1212C199.822 17.1212 199.193 17.3899 198.698 17.9273C198.217 18.4647 197.977 19.2141 197.977 20.1758V25.6061H195.262Z" fill="white"/>
<path d="M191.812 13.4515C191.317 13.4515 190.907 13.303 190.582 13.0061C190.271 12.7091 190.115 12.3343 190.115 11.8818C190.115 11.4293 190.271 11.0616 190.582 10.7788C190.907 10.4818 191.317 10.3333 191.812 10.3333C192.307 10.3333 192.71 10.4818 193.021 10.7788C193.347 11.0616 193.509 11.4293 193.509 11.8818C193.509 12.3343 193.347 12.7091 193.021 13.0061C192.71 13.303 192.307 13.4515 191.812 13.4515ZM190.455 25.6061V15.0849H193.17V25.6061H190.455Z" fill="white"/>
<path d="M171.226 25.6061V15.0849H173.623L173.856 16.5061C174.195 15.997 174.641 15.5939 175.192 15.297C175.758 14.9859 176.408 14.8303 177.144 14.8303C178.77 14.8303 179.923 15.4596 180.601 16.7182C180.983 16.1384 181.492 15.6788 182.129 15.3394C182.779 15 183.486 14.8303 184.25 14.8303C185.622 14.8303 186.675 15.2404 187.41 16.0606C188.146 16.8808 188.513 18.0828 188.513 19.6667V25.6061H185.798V19.9212C185.798 19.0162 185.622 18.3232 185.268 17.8424C184.929 17.3616 184.398 17.1212 183.677 17.1212C182.942 17.1212 182.348 17.3899 181.895 17.9273C181.457 18.4647 181.238 19.2141 181.238 20.1758V25.6061H178.523V19.9212C178.523 19.0162 178.346 18.3232 177.992 17.8424C177.639 17.3616 177.094 17.1212 176.359 17.1212C175.638 17.1212 175.051 17.3899 174.598 17.9273C174.16 18.4647 173.941 19.2141 173.941 20.1758V25.6061H171.226Z" fill="white"/>
<path d="M163.558 25.6061V15.0849H165.976L166.23 17.0576C166.612 16.3788 167.128 15.8414 167.779 15.4455C168.443 15.0354 169.221 14.8303 170.112 14.8303V17.6939H169.349C168.755 17.6939 168.224 17.7859 167.758 17.9697C167.291 18.1535 166.923 18.4717 166.655 18.9242C166.4 19.3768 166.273 20.0061 166.273 20.8121V25.6061H163.558Z" fill="white"/>
<path d="M156.735 25.8606C155.674 25.8606 154.734 25.6343 153.914 25.1818C153.093 24.7293 152.45 24.0929 151.983 23.2727C151.517 22.4525 151.283 21.5051 151.283 20.4303C151.283 19.3414 151.509 18.3727 151.962 17.5242C152.429 16.6758 153.065 16.0182 153.871 15.5515C154.691 15.0707 155.653 14.8303 156.756 14.8303C157.788 14.8303 158.7 15.0566 159.492 15.5091C160.284 15.9616 160.899 16.5838 161.338 17.3758C161.79 18.1535 162.017 19.0232 162.017 19.9849C162.017 20.1404 162.009 20.303 161.995 20.4727C161.995 20.6424 161.988 20.8192 161.974 21.003H153.977C154.034 21.8232 154.317 22.4667 154.826 22.9333C155.349 23.4 155.978 23.6333 156.714 23.6333C157.265 23.6333 157.725 23.5131 158.092 23.2727C158.474 23.0182 158.757 22.6929 158.941 22.297H161.698C161.5 22.9616 161.168 23.5697 160.701 24.1212C160.249 24.6586 159.683 25.0828 159.004 25.3939C158.34 25.7051 157.583 25.8606 156.735 25.8606ZM156.756 17.0364C156.091 17.0364 155.504 17.2273 154.995 17.6091C154.486 17.9768 154.161 18.5424 154.02 19.3061H159.259C159.217 18.6131 158.962 18.0616 158.495 17.6515C158.029 17.2414 157.449 17.0364 156.756 17.0364Z" fill="white"/>
<path d="M148.394 25.6061C147.291 25.6061 146.407 25.3374 145.742 24.8C145.078 24.2626 144.745 23.3081 144.745 21.9364V17.3545H142.942V15.0849H144.745L145.064 12.2636H147.461V15.0849H150.303V17.3545H147.461V21.9576C147.461 22.4667 147.567 22.8202 147.779 23.0182C148.005 23.202 148.387 23.2939 148.924 23.2939H150.239V25.6061H148.394Z" fill="white"/>
<path d="M137.984 25.8606C137.05 25.8606 136.23 25.7121 135.523 25.4152C134.816 25.104 134.25 24.6798 133.826 24.1424C133.402 23.6051 133.147 22.9828 133.062 22.2758H135.799C135.884 22.6859 136.11 23.0394 136.478 23.3364C136.859 23.6192 137.347 23.7606 137.941 23.7606C138.535 23.7606 138.967 23.6404 139.235 23.4C139.518 23.1596 139.659 22.8838 139.659 22.5727C139.659 22.1202 139.461 21.8162 139.066 21.6606C138.67 21.4909 138.118 21.3283 137.411 21.1727C136.958 21.0737 136.499 20.9535 136.032 20.8121C135.566 20.6707 135.134 20.4939 134.738 20.2818C134.356 20.0556 134.045 19.7727 133.805 19.4333C133.565 19.0798 133.444 18.6485 133.444 18.1394C133.444 17.2061 133.812 16.4212 134.547 15.7849C135.297 15.1485 136.343 14.8303 137.687 14.8303C138.931 14.8303 139.921 15.1202 140.656 15.7C141.406 16.2798 141.851 17.0788 141.993 18.097H139.426C139.271 17.3192 138.684 16.9303 137.666 16.9303C137.156 16.9303 136.76 17.0293 136.478 17.2273C136.209 17.4253 136.075 17.6727 136.075 17.9697C136.075 18.2808 136.28 18.5283 136.69 18.7121C137.1 18.896 137.644 19.0657 138.323 19.2212C139.058 19.3909 139.73 19.5818 140.338 19.7939C140.96 19.9919 141.455 20.296 141.823 20.7061C142.191 21.102 142.375 21.6748 142.375 22.4242C142.389 23.0748 142.219 23.6616 141.866 24.1849C141.512 24.7081 141.003 25.1182 140.338 25.4152C139.674 25.7121 138.889 25.8606 137.984 25.8606Z" fill="white"/>
<path d="M125.762 25.8606C124.857 25.8606 124.114 25.7192 123.535 25.4364C122.955 25.1394 122.523 24.7505 122.241 24.2697C121.958 23.7889 121.816 23.2586 121.816 22.6788C121.816 21.703 122.198 20.9111 122.962 20.303C123.725 19.695 124.871 19.3909 126.398 19.3909H129.071V19.1364C129.071 18.4152 128.866 17.8849 128.456 17.5455C128.046 17.2061 127.537 17.0364 126.929 17.0364C126.377 17.0364 125.896 17.1707 125.486 17.4394C125.076 17.6939 124.821 18.0758 124.722 18.5849H122.071C122.142 17.8212 122.396 17.1566 122.835 16.5909C123.287 16.0253 123.867 15.5939 124.574 15.297C125.281 14.9859 126.073 14.8303 126.95 14.8303C128.449 14.8303 129.63 15.2051 130.492 15.9545C131.355 16.704 131.786 17.7647 131.786 19.1364V25.6061H129.474L129.219 23.9091C128.908 24.4748 128.47 24.9414 127.904 25.3091C127.353 25.6768 126.639 25.8606 125.762 25.8606ZM126.377 23.7394C127.155 23.7394 127.756 23.4849 128.18 22.9758C128.618 22.4667 128.894 21.8374 129.007 21.0879H126.695C125.974 21.0879 125.458 21.2222 125.147 21.4909C124.836 21.7455 124.68 22.0636 124.68 22.4455C124.68 22.8556 124.836 23.1737 125.147 23.4C125.458 23.6263 125.868 23.7394 126.377 23.7394Z" fill="white"/>
<path d="M104.215 25.6061V10.7576H107.439L112.169 20.1758L116.836 10.7576H120.06V25.6061H117.345V15.3606L113.209 23.4848H111.066L106.93 15.3606V25.6061H104.215Z" fill="white"/>
<path d="M91.5801 25.8606C90.5902 25.8606 89.7063 25.6202 88.9285 25.1394C88.1508 24.6586 87.5356 24.001 87.0831 23.1667C86.6306 22.3323 86.4043 21.3849 86.4043 20.3242C86.4043 19.2636 86.6306 18.3232 87.0831 17.503C87.5356 16.6687 88.1508 16.0182 88.9285 15.5515C89.7063 15.0707 90.5902 14.8303 91.5801 14.8303C92.372 14.8303 93.0649 14.9788 93.6588 15.2758C94.2528 15.5727 94.7336 15.9899 95.1013 16.5273V10.3333H97.8164V25.6061H95.3982L95.1013 24.1C94.7619 24.5667 94.3093 24.9768 93.7437 25.3303C93.1922 25.6838 92.471 25.8606 91.5801 25.8606ZM92.1528 23.4849C93.0296 23.4849 93.7437 23.195 94.2952 22.6152C94.8609 22.0212 95.1437 21.2646 95.1437 20.3455C95.1437 19.4263 94.8609 18.6768 94.2952 18.097C93.7437 17.503 93.0296 17.2061 92.1528 17.2061C91.2902 17.2061 90.576 17.496 90.0104 18.0758C89.4447 18.6556 89.1619 19.4051 89.1619 20.3242C89.1619 21.2434 89.4447 22 90.0104 22.5939C90.576 23.1879 91.2902 23.4849 92.1528 23.4849Z" fill="white"/>
<path d="M81.9971 25.6061V10.3333H84.7122V25.6061H81.9971Z" fill="white"/>
<path d="M78.5476 13.4515C78.0526 13.4515 77.6425 13.303 77.3173 13.0061C77.0061 12.7091 76.8506 12.3343 76.8506 11.8818C76.8506 11.4293 77.0061 11.0616 77.3173 10.7788C77.6425 10.4818 78.0526 10.3333 78.5476 10.3333C79.0425 10.3333 79.4455 10.4818 79.7566 10.7788C80.0819 11.0616 80.2445 11.4293 80.2445 11.8818C80.2445 12.3343 80.0819 12.7091 79.7566 13.0061C79.4455 13.303 79.0425 13.4515 78.5476 13.4515ZM77.19 25.6061V15.0849H79.9051V25.6061H77.19Z" fill="white"/>
<path d="M68.8661 25.8606C67.551 25.8606 66.5328 25.4505 65.8116 24.6303C65.1045 23.8101 64.751 22.6081 64.751 21.0242V15.0849H67.4449V20.7697C67.4449 21.6748 67.6288 22.3677 67.9964 22.8485C68.3641 23.3293 68.9439 23.5697 69.7358 23.5697C70.4853 23.5697 71.1005 23.301 71.5813 22.7636C72.0762 22.2263 72.3237 21.4768 72.3237 20.5152V15.0849H75.0389V25.6061H72.6419L72.4298 23.8242C72.1045 24.4465 71.6308 24.9414 71.0086 25.3091C70.4005 25.6768 69.6863 25.8606 68.8661 25.8606Z" fill="white"/>
<path d="M55.8118 25.8606C54.4118 25.8606 53.1886 25.5424 52.1421 24.9061C51.0956 24.2697 50.2825 23.3859 49.7027 22.2546C49.1229 21.1091 48.833 19.7798 48.833 18.2667C48.833 16.7394 49.13 15.396 49.7239 14.2364C50.332 13.0626 51.1876 12.1505 52.2906 11.5C53.4078 10.8354 54.73 10.503 56.2573 10.503C57.9966 10.503 59.4391 10.9202 60.5845 11.7546C61.73 12.5889 62.4724 13.7414 62.8118 15.2121H59.7785C59.5522 14.5192 59.1421 13.9818 58.5482 13.6C57.9542 13.204 57.1906 13.0061 56.2573 13.0061C54.7724 13.0061 53.6269 13.4798 52.8209 14.4273C52.0148 15.3606 51.6118 16.6475 51.6118 18.2879C51.6118 19.9283 52.0078 21.201 52.7997 22.1061C53.6057 22.997 54.6946 23.4424 56.0663 23.4424C57.4098 23.4424 58.4209 23.0818 59.0997 22.3606C59.7926 21.6253 60.2098 20.6636 60.3512 19.4758H56.5966V17.4394H63.0876V25.6061H60.5845L60.3724 23.6545C59.8916 24.3616 59.2906 24.9061 58.5694 25.2879C57.8482 25.6697 56.929 25.8606 55.8118 25.8606Z" fill="white"/>
<path d="M35.6059 18.2576C35.6059 27.7552 27.9065 35.4545 18.4089 35.4545C8.91126 35.4545 1.21191 27.7552 1.21191 18.2576C1.21191 8.75995 8.91126 1.06061 18.4089 1.06061C27.9065 1.06061 35.6059 8.75995 35.6059 18.2576Z" fill="url(#paint0_linear_443_197712)"/>
<path fill-rule="evenodd" clip-rule="evenodd" d="M18.4094 2.04546C9.45565 2.04546 2.19724 9.30387 2.19724 18.2576C2.19724 27.2113 9.45565 34.4697 18.4094 34.4697C27.3631 34.4697 34.6215 27.2113 34.6215 18.2576C34.6215 9.30387 27.3631 2.04546 18.4094 2.04546ZM0.227539 18.2576C0.227539 8.21604 8.36782 0.0757599 18.4094 0.0757599C28.4509 0.0757599 36.5912 8.21604 36.5912 18.2576C36.5912 28.2991 28.4509 36.4394 18.4094 36.4394C8.36782 36.4394 0.227539 28.2991 0.227539 18.2576Z" fill="url(#paint1_linear_443_197712)"/>
<path d="M25.9094 21.3636C25.9094 27.2212 21.1609 31.9697 15.3033 31.9697C9.44576 31.9697 4.69727 27.2212 4.69727 21.3636C4.69727 15.5061 9.44576 10.7576 15.3033 10.7576C21.1609 10.7576 25.9094 15.5061 25.9094 21.3636Z" fill="url(#paint2_linear_443_197712)"/>
<path fill-rule="evenodd" clip-rule="evenodd" d="M15.3028 11.7424C9.98917 11.7424 5.68161 16.05 5.68161 21.3636C5.68161 26.6773 9.98917 30.9848 15.3028 30.9848C20.6165 30.9848 24.924 26.6773 24.924 21.3636C24.924 16.05 20.6165 11.7424 15.3028 11.7424ZM3.71191 21.3636C3.71191 14.9622 8.90134 9.77273 15.3028 9.77273C21.7043 9.77273 26.8937 14.9622 26.8937 21.3636C26.8937 27.7651 21.7043 32.9545 15.3028 32.9545C8.90134 32.9545 3.71191 27.7651 3.71191 21.3636Z" fill="url(#paint3_linear_443_197712)"/>
<path d="M17.8791 25.1515C17.8791 28.2477 15.3692 30.7576 12.2731 30.7576C9.17691 30.7576 6.66699 28.2477 6.66699 25.1515C6.66699 22.0554 9.17691 19.5455 12.2731 19.5455C15.3692 19.5455 17.8791 22.0554 17.8791 25.1515Z" fill="url(#paint4_linear_443_197712)"/>
<path fill-rule="evenodd" clip-rule="evenodd" d="M12.2726 20.5303C9.72032 20.5303 7.65134 22.5993 7.65134 25.1515C7.65134 27.7037 9.72032 29.7727 12.2726 29.7727C14.8248 29.7727 16.8938 27.7037 16.8938 25.1515C16.8938 22.5993 14.8248 20.5303 12.2726 20.5303ZM5.68164 25.1515C5.68164 21.5115 8.63249 18.5606 12.2726 18.5606C15.9126 18.5606 18.8635 21.5115 18.8635 25.1515C18.8635 28.7916 15.9126 31.7424 12.2726 31.7424C8.63249 31.7424 5.68164 28.7916 5.68164 25.1515Z" fill="url(#paint5_linear_443_197712)"/>
<defs>
<linearGradient id="paint0_linear_443_197712" x1="31.2443" y1="1.06061" x2="11.1735" y2="22.7477" gradientUnits="userSpaceOnUse">
<stop stop-color="white" stop-opacity="0.13"/>
<stop offset="1" stop-color="white" stop-opacity="0"/>
</linearGradient>
<linearGradient id="paint1_linear_443_197712" x1="26.2262" y1="8.7797" x2="6.49602" y2="30.3803" gradientUnits="userSpaceOnUse">
<stop stop-color="white"/>
<stop offset="0.981119" stop-opacity="0"/>
</linearGradient>
<linearGradient id="paint2_linear_443_197712" x1="23.2194" y1="10.7576" x2="10.841" y2="24.1329" gradientUnits="userSpaceOnUse">
<stop stop-color="white" stop-opacity="0.13"/>
<stop offset="1" stop-color="white" stop-opacity="0"/>
</linearGradient>
<linearGradient id="paint3_linear_443_197712" x1="20.1238" y1="15.5183" x2="5.80261" y2="30.974" gradientUnits="userSpaceOnUse">
<stop stop-color="white"/>
<stop offset="0.981119" stop-opacity="0"/>
</linearGradient>
<linearGradient id="paint4_linear_443_197712" x1="16.4573" y1="19.5455" x2="7.46563" y2="29.4541" gradientUnits="userSpaceOnUse">
<stop stop-color="white" stop-opacity="0.13"/>
<stop offset="1" stop-color="white" stop-opacity="0"/>
</linearGradient>
<linearGradient id="paint5_linear_443_197712" x1="14.8208" y1="22.0618" x2="4.16719" y2="32.1627" gradientUnits="userSpaceOnUse">
<stop stop-color="white"/>
<stop offset="0.981119" stop-opacity="0"/>
</linearGradient>
</defs>
</svg>
